<svg version="1.2" xmlns="http://www.w3.org/2000/svg" viewBox="0 0 32 32" width="32" height="32">
	<title>babel</title>
	<style>
		.s0 { fill: #2c2c2c } 
		.s1 { fill: #ffffff } 
		.s2 { fill: #808080 } 
	</style>
	<path id="Shape 1" class="s0" d="m16 32c-8.8 0-16-7.2-16-16 0-8.8 7.2-16 16-16 8.8 0 16 7.2 16 16 0 8.8-7.2 16-16 16z"/>
	<path id="&lt;B&gt;" class="s1" aria-label="&lt;B&gt;"  d="m1.6 17.8v-1.9l7.8-2.9v2.4l-4.4 1.5 4.4 1.5v2.4zm15.3 3.1h-4.9v-12.1h4.5q1.6 0.1 2.6 0.8 1 0.7 1 2.4 0 0.8-0.3 1.5-0.3 0.6-1 1 1.3 0.2 1.8 1 0.6 0.8 0.6 2.1 0 1.9-1.3 2.6-1.4 0.7-3 0.7zm-1.7-5v2.6h0.4q0 0 0 0 0 0 0.1 0 0.1 0 0.4 0 0.2 0 0.4 0 0.6 0 1.1-0.3 0.5-0.2 0.5-1 0-0.8-0.6-1-0.5-0.2-1.2-0.3-0.1 0-0.3 0-0.1 0-0.3 0 0 0-0.1 0-0.1 0-0.1 0zm0-4.6v2.3h0.3q0 0 0.1 0 0 0 0 0 0.6 0 1.1-0.2 0.5-0.2 0.5-1 0-0.7-0.5-0.9-0.4-0.2-1-0.2-0.1 0-0.2 0 0 0-0.1 0zm16.1 4.6v1.9l-7.8 2.9v-2.4l4.3-1.5-4.3-1.4v-2.4z"/>
	<path id="Shape 2" class="s2" d=""/>
</svg>